<svg xmlns="http://www.w3.org/2000/svg" viewBox="0 0 640 480"><path fill="#005BAE" d="M0 0h640v480H0z"/><path fill="#FFF" d="M0 0v160h160V0H0zm160 160v160h160V160H160zm160 0V0h160v160H320zm160 0v160h160V160H480zM0 320v160h160V320H0zm160 0V160H0v160h160zm160 0v160h160V320H320zm160 0V160h160v160H480zM0 0h640v480H0z"/><path fill="#FFF" d="M0 0v53.3h53.3V0H0zm106.7 0v53.3H160V0h-53.3zm106.6 0v53.3H266.7V0h-53.4zm106.7 0v53.3H373.3V0H320zm106.7 0v53.3H480V0h-53.3zm106.6 0v53.3H586.7V0h-53.4zM0 106.7v53.3h53.3v-53.3H0zm106.7 0v53.3H160v-53.3h-53.3zm106.6 0v53.3H266.7v-53.3h-53.4zm106.7 0v53.3H373.3v-53.3H320zm106.7 0v53.3H480v-53.3h-53.3zm106.6 0v53.3H586.7v-53.3h-53.4zM0 213.3v53.4h640v-53.4H0zM0 320v53.3h640V320H0zM0 426.7H640V480H0z"/><path fill="#005BAE" d="M0 0v200h200V0H0z"/><path fill="#FFF" d="M80 0v200h40V0H80z"/><path fill="#FFF" d="M0 80h200v40H0z"/></svg>
