<svg xmlns="http://www.w3.org/2000/svg" viewBox="0 0 640 480"><path fill="#de2910" d="M0 0h640v480H0z"/><path fill="#ffde00" d="M128 96l12.3 38h40l-32.3 23.5 12.3 38L128 172l-32.3 23.5 12.3-38L75.7 134h40zm80-48l6.2 19h20l-16.2 11.8 6.2 19-16.2-11.8-16.2 11.8 6.2-19L181.8 67h20zm48 48l6.2 19h20l-16.2 11.8 6.2 19-16.2-11.8-16.2 11.8 6.2-19L229.8 115h20zm0 96l6.2 19h20l-16.2 11.8 6.2 19-16.2-11.8-16.2 11.8 6.2-19-16.2-11.8h20zm-48 48l6.2 19h20l-16.2 11.8 6.2 19-16.2-11.8-16.2 11.8 6.2-19-16.2-11.8h20z"/></svg>
